<svg width="35" height="36" viewBox="0 0 35 36" fill="none" xmlns="http://www.w3.org/2000/svg">
<g clip-path="url(#clip0_129_1347)">
<path d="M34.9816 18.3368C34.9816 16.8619 34.8625 15.7856 34.6048 14.6694H17.8486V21.3264H27.6841C27.4859 22.9808 26.4151 25.4722 24.0355 27.1463L24.0021 27.3692L29.3001 31.4945L29.6672 31.5313C33.0382 28.4021 34.9816 23.7979 34.9816 18.3368Z" fill="#4285F4"/>
<path d="M17.8485 35.8762C22.667 35.8762 26.7122 34.2816 29.667 31.5312L24.0353 27.1462C22.5283 28.2026 20.5056 28.94 17.8485 28.94C13.129 28.94 9.12342 25.8109 7.69554 21.4858L7.48624 21.5037L1.97732 25.7889L1.90527 25.9902C4.84005 31.85 10.8683 35.8762 17.8485 35.8762Z" fill="#34A853"/>
<path d="M7.69583 21.4862C7.31907 20.37 7.10103 19.1741 7.10103 17.9384C7.10103 16.7026 7.31907 15.5068 7.67601 14.3906L7.66603 14.1529L2.08807 9.79883L1.90557 9.88608C0.696003 12.3177 0.00195312 15.0484 0.00195312 17.9384C0.00195312 20.8284 0.696003 23.5589 1.90557 25.9906L7.69583 21.4862Z" fill="#FBBC05"/>
<path d="M17.8485 6.93605C21.1996 6.93605 23.4602 8.39102 24.7492 9.60691L29.7859 4.66392C26.6926 1.77389 22.667 0 17.8485 0C10.8683 0 4.84005 4.02609 1.90527 9.88585L7.67571 14.3904C9.12342 10.0653 13.129 6.93605 17.8485 6.93605Z" fill="#EB4335"/>
</g>
<defs>
<clipPath id="clip0_129_1347">
<rect width="35" height="36" fill="white"/>
</clipPath>
</defs>
</svg>
